<svg xmlns="http://www.w3.org/2000/svg" viewBox="0 0 512 512" width="512" height="512">
  <defs>
    <linearGradient id="goldBorder" x1="0%" y1="0%" x2="100%" y2="100%">
      <stop offset="0%" stop-color="#FFD700"/>
      <stop offset="50%" stop-color="#D4A017"/>
      <stop offset="100%" stop-color="#B8860B"/>
    </linearGradient>
    <linearGradient id="greenBadge" x1="0%" y1="0%" x2="100%" y2="0%">
      <stop offset="0%" stop-color="#1a9e0a"/>
      <stop offset="100%" stop-color="#0d7a05"/>
    </linearGradient>
    <linearGradient id="saffronRupee" x1="0%" y1="0%" x2="100%" y2="100%">
      <stop offset="0%" stop-color="#FF9933"/>
      <stop offset="100%" stop-color="#E07B00"/>
    </linearGradient>
    <clipPath id="roundedClip">
      <rect x="8" y="8" width="496" height="496" rx="80" ry="80"/>
    </clipPath>
  </defs>
  <rect x="8" y="8" width="496" height="496" rx="80" ry="80" fill="#0A1628"/>
  <g clip-path="url(#roundedClip)">
    <rect x="8" y="8" width="496" height="166" fill="#FF9933" opacity="0.18"/>
    <rect x="8" y="174" width="496" height="164" fill="#F5F5F5" opacity="0.07"/>
    <rect x="8" y="338" width="496" height="166" fill="#138808" opacity="0.22"/>
  </g>
  <circle cx="256" cy="235" r="168" fill="none" stroke="#000080" stroke-width="5.5" opacity="0.5"/>
  <circle cx="256" cy="235" r="142" fill="none" stroke="#000080" stroke-width="3" opacity="0.45"/>
  <circle cx="256" cy="235" r="20" fill="none" stroke="#000080" stroke-width="5" opacity="0.55"/>
  <circle cx="256" cy="235" r="7" fill="#000080" opacity="0.5"/>
  <g stroke="#000080" stroke-width="2.5" opacity="0.4">
    <line x1="256" y1="67" x2="256" y2="403" transform="rotate(0 256 235)"/>
    <line x1="256" y1="67" x2="256" y2="403" transform="rotate(15 256 235)"/>
    <line x1="256" y1="67" x2="256" y2="403" transform="rotate(30 256 235)"/>
    <line x1="256" y1="67" x2="256" y2="403" transform="rotate(45 256 235)"/>
    <line x1="256" y1="67" x2="256" y2="403" transform="rotate(60 256 235)"/>
    <line x1="256" y1="67" x2="256" y2="403" transform="rotate(75 256 235)"/>
    <line x1="256" y1="67" x2="256" y2="403" transform="rotate(90 256 235)"/>
    <line x1="256" y1="67" x2="256" y2="403" transform="rotate(105 256 235)"/>
    <line x1="256" y1="67" x2="256" y2="403" transform="rotate(120 256 235)"/>
    <line x1="256" y1="67" x2="256" y2="403" transform="rotate(135 256 235)"/>
    <line x1="256" y1="67" x2="256" y2="403" transform="rotate(150 256 235)"/>
    <line x1="256" y1="67" x2="256" y2="403" transform="rotate(165 256 235)"/>
  </g>
  <text x="256" y="310" font-family="'Arial Black', Arial, sans-serif" font-size="260" font-weight="900" fill="url(#saffronRupee)" text-anchor="middle">₹</text>
  <rect x="136" y="378" width="240" height="58" rx="29" fill="url(#greenBadge)"/>
  <circle cx="176" cy="407" r="18" fill="white" opacity="0.2"/>
  <polyline points="167,407 175,417 189,397" fill="none" stroke="white" stroke-width="4" stroke-linecap="round" stroke-linejoin="round"/>
  <text x="270" y="400" font-family="'Arial Black', Arial, sans-serif" font-size="17" font-weight="900" fill="white" text-anchor="middle" letter-spacing="3">GST</text>
  <text x="270" y="420" font-family="Arial, sans-serif" font-size="12" font-weight="700" fill="white" text-anchor="middle" letter-spacing="2" opacity="0.9">INVOICE</text>
  <rect x="8" y="8" width="496" height="496" rx="80" ry="80" fill="none" stroke="url(#goldBorder)" stroke-width="12"/>
</svg>